<?xml version="1.0" encoding="UTF-8"?>
<svg version="1.1" xmlns="http://www.w3.org/2000/svg" width="69" height="66">
<path d="M0 0 C-5.76428686 20.73814827 -5.76428686 20.73814827 -9.0546875 29.37890625 C-12.96612123 39.9316427 -12.96612123 39.9316427 -14 51 C-10.15240763 52.24502748 -6.3103436 52.14420221 -2.3125 52.1328125 C-1.57298096 52.13376923 -0.83346191 52.13472595 -0.0715332 52.13571167 C1.48844488 52.13639067 3.04842582 52.13455592 4.60839844 52.13037109 C6.99160122 52.12501886 9.37461555 52.13032553 11.7578125 52.13671875 C13.27604208 52.13605792 14.79427155 52.13477665 16.3125 52.1328125 C17.02301514 52.13483673 17.73353027 52.13686096 18.46557617 52.13894653 C21.78677062 52.12326256 24.82423135 52.02763465 28 51 C26.79618552 53.49361571 25.54571278 55.68143083 24 58 C23.34 58 22.68 58 22 58 C22 58.66 22 59.32 22 60 C14.57032542 65.16846928 8.2159792 66.61849902 -0.6875 66.6875 C-2.00463989 66.71553711 -2.00463989 66.71553711 -3.34838867 66.74414062 C-11.98033499 66.59504853 -18.73620235 62.85822802 -25 57 C-26.984375 54.34375 -26.984375 54.34375 -28.75 51.5 C-29.63945312 50.09234375 -29.63945312 50.09234375 -30.546875 48.65625 C-33.31013375 43.60513186 -33.21338877 38.82105305 -33.25 33.1875 C-33.270625 32.40568359 -33.29125 31.62386719 -33.3125 30.81835938 C-33.37171015 21.95904075 -29.88305964 15.53378181 -24 9 C-16.58235625 2.18129642 -9.91213178 -0.18585247 0 0 Z " fill="#CE2A33" transform="translate(33,0)"/>
<path d="M0 0 C11.51924011 2.69097003 18.51667809 8.11293408 25 18 C29.05991624 26.30437412 28.55209331 36.35123934 26 45 C25 46 25 46 21.48999023 46.11352539 C19.92951578 46.11336626 18.36903607 46.10767142 16.80859375 46.09765625 C15.98875504 46.0962413 15.16891632 46.09482635 14.32423401 46.09336853 C11.69528618 46.08775289 9.06642227 46.07519779 6.4375 46.0625 C4.65950643 46.05748701 2.88151154 46.05292376 1.10351562 46.04882812 C-3.26435545 46.03777839 -7.63216348 46.02050331 -12 46 C-13.27039962 42.18880114 -12.51944102 40.57645164 -11.375 36.75 C-11.00117188 35.49703125 -10.62734375 34.2440625 -10.2421875 32.953125 C-8.66254176 27.86510866 -6.94831564 22.82273934 -5.23828125 17.77734375 C-3.31197636 11.90120233 -1.64402807 5.96074982 0 0 Z " fill="#97A2A9" transform="translate(39,0)"/>
<path d="M0 0 C-6.05571717 21.78662574 -6.05571717 21.78662574 -9.23828125 29.84375 C-10.07278473 32.20603679 -10.56187148 34.53606931 -11 37 C-11.21140625 36.401875 -11.4228125 35.80375 -11.640625 35.1875 C-13.50473757 32.18777863 -15.56133496 31.45948847 -18.75 30 C-27.21812949 25.96416878 -27.21812949 25.96416878 -31 23 C-31.33 22.01 -31.66 21.02 -32 20 C-27.10690677 10.64839748 -20.35109565 4.61831307 -10.72265625 0.6640625 C-7.06252067 -0.22865349 -3.7643477 -0.10378901 0 0 Z " fill="#D4424A" transform="translate(33,0)"/>
<path d="M0 0 C0.99 0.33 1.98 0.66 3 1 C4.11602213 7.13812173 3.90785354 12.02815707 2 18 C1 19 1 19 -2.51000977 19.11352539 C-4.07048422 19.11336626 -5.63096393 19.10767142 -7.19140625 19.09765625 C-8.01124496 19.0962413 -8.83108368 19.09482635 -9.67576599 19.09336853 C-12.30471382 19.08775289 -14.93357773 19.07519779 -17.5625 19.0625 C-19.34049357 19.05748701 -21.11848846 19.05292376 -22.89648438 19.04882812 C-27.26435545 19.03777839 -31.63216348 19.02050331 -36 19 C-37.33176248 15.00471255 -36.41870859 12.90144863 -35 9 C-31.48752209 6.65834806 -29.96812978 6.77835957 -25.8125 6.6875 C-16.97997885 6.19936275 -7.95389649 3.97694825 0 0 Z " fill="#8B979E" transform="translate(63,27)"/>
<path d="M0 0 C0 0.99 0 1.98 0 3 C-3.1547749 4.57738745 -6.51001973 4.04264504 -9.96484375 3.94921875 C-11.1485128 3.92091728 -11.1485128 3.92091728 -12.35609436 3.89204407 C-14.02644885 3.85014049 -15.69673422 3.8054009 -17.36694336 3.75805664 C-19.9235262 3.68788355 -22.48012914 3.63352815 -25.03710938 3.58007812 C-26.65887993 3.5374271 -28.28062616 3.49383839 -29.90234375 3.44921875 C-31.05089088 3.42718636 -31.05089088 3.42718636 -32.22264099 3.40470886 C-35.98205296 3.2831057 -37.79832612 3.13444925 -41 1 C-39.86457764 1.00523682 -38.72915527 1.01047363 -37.55932617 1.01586914 C-33.34937324 1.03396038 -29.13942376 1.04544714 -24.92944336 1.05493164 C-23.10684634 1.0599624 -21.28425335 1.06678769 -19.46166992 1.07543945 C-16.84292606 1.08755997 -14.22423553 1.09324086 -11.60546875 1.09765625 C-10.78974899 1.10281754 -9.97402924 1.10797882 -9.1335907 1.11329651 C-5.82986071 1.1136246 -3.15676862 1.05225621 0 0 Z " fill="#DB6168" transform="translate(60,51)"/>
<path d="M0 0 C-1.40844718 3.21524305 -3.10344786 5.32183868 -5.625 7.75 C-6.57246094 8.67039062 -6.57246094 8.67039062 -7.5390625 9.609375 C-8.02117188 10.06828125 -8.50328125 10.5271875 -9 11 C-9 7.25983417 -8.0658409 6.54723807 -5.625 3.8125 C-4.99851562 3.09707031 -4.37203125 2.38164062 -3.7265625 1.64453125 C-2 0 -2 0 0 0 Z " fill="#E17B81" transform="translate(14,6)"/>
</svg>
